<svg width="37" height="36" viewBox="0 0 37 36" fill="none" xmlns="http://www.w3.org/2000/svg">
<g clip-path="url(#clip0_128_171)">
<rect x="0.666626" y="14.9813" width="20.7407" height="20.7407" fill="#7595FD"/>
<path d="M28.8014 3.12952H14.0148C12.3688 3.12952 11.037 4.46137 11.037 6.1073V14.4584L4.07107 21.3354C3.86235 21.5419 3.71966 21.8057 3.66111 22.0933C3.60256 22.381 3.6308 22.6795 3.74222 22.9511C3.85365 23.2227 4.04325 23.4551 4.28696 23.6187C4.53068 23.7824 4.81751 23.8699 5.11107 23.8703V31.2777C5.11107 31.6706 5.26715 32.0474 5.54498 32.3252C5.82281 32.6031 6.19963 32.7591 6.59255 32.7591H30.2963C30.6892 32.7591 31.066 32.6031 31.3438 32.3252C31.6217 32.0474 31.7777 31.6706 31.7777 31.2777V6.10581C31.7777 4.46137 30.4474 3.12952 28.8014 3.12952ZM16.8474 22.5532V29.7962H8.07403V21.5473L12.4992 17.1784L16.8474 21.6273V22.5532ZM19.9259 13.4999H16.9629V10.5369H19.9259V13.4999ZM25.8518 25.3517H22.8888V22.3888H25.8518V25.3517ZM25.8518 19.4258H22.8888V16.4629H25.8518V19.4258ZM25.8518 13.4999H22.8888V10.5369H25.8518V13.4999Z" fill="#292E3D"/>
<path d="M11.037 22.3888H13.9999V25.3518H11.037V22.3888Z" fill="#14171F"/>
</g>
<defs>
<clipPath id="clip0_128_171">
<rect width="35.5556" height="35.5556" fill="white" transform="translate(0.666626 0.166626)"/>
</clipPath>
</defs>
</svg>
