<svg width="37" height="37" viewBox="0 0 37 37" fill="none" xmlns="http://www.w3.org/2000/svg">
<g clip-path="url(#clip0_128_196)">
<rect x="0.666626" y="15.537" width="20.7407" height="20.7407" fill="#7595FD"/>
<path d="M10.0888 28.5443L10.4592 31.8332L12.8592 29.5517L16.9629 18.2924C15.9555 18.0406 15.0666 17.5369 14.3407 16.8406L10.0888 28.5443ZM22.5481 16.8406C21.8221 17.5369 20.9184 18.0406 19.9258 18.2924L24.0295 29.5517L26.4295 31.8332L26.8147 28.5443L22.5481 16.8406ZM22.7999 13.4628C23.2444 11.1517 21.911 9.10724 19.9258 8.39613V6.64799C19.9258 5.83317 19.2592 5.1665 18.4444 5.1665C17.6295 5.1665 16.9629 5.83317 16.9629 6.64799V8.39613C15.2444 9.01836 13.9999 10.648 13.9999 12.5739C13.9999 15.2998 16.4592 17.4628 19.274 16.9443C21.0221 16.6184 22.4592 15.2109 22.7999 13.4628ZM18.4444 14.0554C17.6295 14.0554 16.9629 13.3887 16.9629 12.5739C16.9629 11.7591 17.6295 11.0924 18.4444 11.0924C19.2592 11.0924 19.9258 11.7591 19.9258 12.5739C19.9258 13.3887 19.2592 14.0554 18.4444 14.0554Z" fill="#292E3D"/>
</g>
<defs>
<clipPath id="clip0_128_196">
<rect width="35.5556" height="35.5556" fill="white" transform="translate(0.666626 0.722168)"/>
</clipPath>
</defs>
</svg>
