<svg width="37" height="36" viewBox="0 0 37 36" fill="none" xmlns="http://www.w3.org/2000/svg">
<path d="M31.8889 12.0741C32.6747 12.0741 33.4284 12.3862 33.984 12.9419C34.5397 13.4976 34.8519 14.2512 34.8519 15.037V20.963C34.8519 21.7488 34.5397 22.5024 33.984 23.0581C33.4284 23.6138 32.6747 23.9259 31.8889 23.9259H30.3156C29.9544 26.7901 28.5604 29.424 26.3952 31.3333C24.23 33.2427 21.4424 34.2962 18.5556 34.2963V31.3333C20.9131 31.3333 23.174 30.3968 24.841 28.7298C26.508 27.0628 27.4445 24.8019 27.4445 22.4444V13.5555C27.4445 11.1981 26.508 8.93715 24.841 7.27016C23.174 5.60317 20.9131 4.66666 18.5556 4.66666C16.1981 4.66666 13.9372 5.60317 12.2702 7.27016C10.6032 8.93715 9.66668 11.1981 9.66668 13.5555V23.9259H5.22224C4.43641 23.9259 3.68277 23.6138 3.12711 23.0581C2.57145 22.5024 2.25928 21.7488 2.25928 20.963V15.037C2.25928 14.2512 2.57145 13.4976 3.12711 12.9419C3.68277 12.3862 4.43641 12.0741 5.22224 12.0741H6.79557C7.1571 9.21021 8.55125 6.57669 10.7164 4.66766C12.8816 2.75863 15.669 1.70529 18.5556 1.70529C21.4422 1.70529 24.2295 2.75863 26.3947 4.66766C28.5599 6.57669 29.954 9.21021 30.3156 12.0741H31.8889ZM12.2741 23.6074L13.8445 21.0948C15.2564 21.9793 16.8894 22.4471 18.5556 22.4444C20.2217 22.4471 21.8547 21.9793 23.2667 21.0948L24.8371 23.6074C22.9545 24.7869 20.7771 25.4108 18.5556 25.4074C16.334 25.4108 14.1567 24.7869 12.2741 23.6074Z" fill="#F9995D"/>
</svg>
