<svg width="37" height="36" viewBox="0 0 37 36" fill="none" xmlns="http://www.w3.org/2000/svg">
<g clip-path="url(#clip0_128_178)">
<rect x="0.666626" y="14.9813" width="20.7407" height="20.7407" fill="#7595FD"/>
<path d="M29.5555 4.611C28.5735 4.61178 27.6319 5.00225 26.9375 5.69666C26.2431 6.39107 25.8526 7.33266 25.8518 8.3147C25.8518 8.84359 25.9674 9.34582 26.1689 9.80359L23.2726 13.0614C22.2887 12.3822 21.1214 12.0185 19.9259 12.0184C18.8296 12.0184 17.8163 12.3384 16.9348 12.8569L13.5659 9.48952L13.5318 9.52359C13.8222 8.93396 14 8.27767 14 7.57396C14 6.69494 13.7393 5.83565 13.251 5.10476C12.7626 4.37388 12.0685 3.80422 11.2563 3.46783C10.4442 3.13144 9.5506 3.04343 8.68846 3.21492C7.82632 3.38641 7.0344 3.8097 6.41283 4.43127C5.79127 5.05283 5.36797 5.84476 5.19648 6.7069C5.02499 7.56903 5.11301 8.46266 5.4494 9.27478C5.78579 10.0869 6.35544 10.781 7.08633 11.2694C7.81721 11.7577 8.6765 12.0184 9.55553 12.0184C10.2592 12.0184 10.914 11.8406 11.5052 11.5503L11.4711 11.5843L14.84 14.9517C14.2957 15.8555 14.0055 16.8894 14 17.9443C14 19.4214 14.5629 20.7577 15.4592 21.7977L11.6415 25.614C11.2136 25.4427 10.7572 25.3537 10.2963 25.3517C8.25479 25.3517 6.59257 27.0125 6.59257 29.0554C6.59257 31.0984 8.25479 32.7591 10.2963 32.7591C12.3378 32.7591 14 31.0984 14 29.0554C14 28.5799 13.9022 28.128 13.7378 27.7088L17.9422 23.5043C18.5659 23.7266 19.2266 23.8703 19.9259 23.8703C23.194 23.8703 25.8518 21.2125 25.8518 17.9443C25.8518 17.0021 25.6103 16.1236 25.2178 15.331L28.354 11.8006C28.7333 11.931 29.1333 12.0184 29.5555 12.0184C31.5985 12.0184 33.2592 10.3577 33.2592 8.3147C33.2592 6.27174 31.5985 4.611 29.5555 4.611ZM19.9259 20.9073C18.2918 20.9073 16.9629 19.5784 16.9629 17.9443C16.9629 16.3103 18.2918 14.9814 19.9259 14.9814C21.56 14.9814 22.8889 16.3103 22.8889 17.9443C22.8889 19.5784 21.56 20.9073 19.9259 20.9073Z" fill="white"/>
</g>
<defs>
<clipPath id="clip0_128_178">
<rect width="35.5556" height="35.5556" fill="white" transform="translate(0.666626 0.166626)"/>
</clipPath>
</defs>
</svg>
