<svg width="37" height="37" viewBox="0 0 37 37" fill="none" xmlns="http://www.w3.org/2000/svg">
<g clip-path="url(#clip0_128_190)">
<rect x="0.666626" y="15.537" width="20.7407" height="20.7407" fill="#7595FD"/>
<path d="M27.3333 24.4258H24.3704V22.9444H12.5185V24.4258H9.55557V22.9444H3.62964V30.3518H33.2593V22.9444H27.3333V24.4258ZM30.2963 12.574H25.8519V9.61103C25.8519 7.9814 24.5185 6.64807 22.8889 6.64807H14C12.3704 6.64807 11.037 7.9814 11.037 9.61103V12.574H6.5926C4.96297 12.574 3.62964 13.9073 3.62964 15.537V21.4629H9.55557V18.4999H12.5185V21.4629H24.3704V18.4999H27.3333V21.4629H33.2593V15.537C33.2593 13.9073 31.9259 12.574 30.2963 12.574ZM22.8889 12.574H14V9.61103H22.8889V12.574Z" fill="white"/>
</g>
<defs>
<clipPath id="clip0_128_190">
<rect width="35.5556" height="35.5556" fill="white" transform="translate(0.666626 0.722168)"/>
</clipPath>
</defs>
</svg>
