<svg width="36" height="36" viewBox="0 0 36 36" fill="none" xmlns="http://www.w3.org/2000/svg">
<g clip-path="url(#clip0_128_184)">
<rect x="0.222229" y="14.9813" width="20.7407" height="20.7407" fill="#7595FD"/>
<path d="M16.5185 9.05538H20.9629L25.837 4.16649C25.9747 4.02763 26.1386 3.91742 26.3191 3.84221C26.4997 3.76699 26.6933 3.72827 26.8889 3.72827C27.0844 3.72827 27.2781 3.76699 27.4586 3.84221C27.6391 3.91742 27.803 4.02763 27.9407 4.16649L31.7629 8.00353C32.0389 8.2811 32.1938 8.65659 32.1938 9.04797C32.1938 9.43936 32.0389 9.81484 31.7629 10.0924L28.3704 13.4998H16.5185V16.4628C16.5185 16.8557 16.3624 17.2325 16.0846 17.5104C15.8068 17.7882 15.4299 17.9443 15.037 17.9443C14.6441 17.9443 14.2673 17.7882 13.9895 17.5104C13.7116 17.2325 13.5555 16.8557 13.5555 16.4628V12.0183C13.5555 11.2325 13.8677 10.4789 14.4234 9.92321C14.979 9.36755 15.7327 9.05538 16.5185 9.05538ZM7.62961 16.4628V22.3887L4.23702 25.7813C3.96109 26.0589 3.80621 26.4344 3.80621 26.8258C3.80621 27.2171 3.96109 27.5926 4.23702 27.8702L8.05924 31.7072C8.19696 31.8461 8.36082 31.9563 8.54135 32.0315C8.72188 32.1067 8.91552 32.1455 9.11109 32.1455C9.30666 32.1455 9.5003 32.1067 9.68084 32.0315C9.86137 31.9563 10.0252 31.8461 10.1629 31.7072L16.5185 25.3517H22.4444C22.8373 25.3517 23.2142 25.1956 23.492 24.9178C23.7698 24.6399 23.9259 24.2631 23.9259 23.8702V22.3887H25.4074C25.8003 22.3887 26.1771 22.2326 26.455 21.9548C26.7328 21.677 26.8889 21.3001 26.8889 20.9072V19.4257H28.3704C28.7633 19.4257 29.1401 19.2697 29.4179 18.9918C29.6958 18.714 29.8518 18.3372 29.8518 17.9443V16.4628H19.4815V17.9443C19.4815 18.7301 19.1693 19.4837 18.6136 20.0394C18.058 20.5951 17.3043 20.9072 16.5185 20.9072H13.5555C12.7697 20.9072 12.0161 20.5951 11.4604 20.0394C10.9047 19.4837 10.5926 18.7301 10.5926 17.9443V13.4998L7.62961 16.4628Z" fill="#292E3D"/>
</g>
<defs>
<clipPath id="clip0_128_184">
<rect width="35.5556" height="35.5556" fill="white" transform="translate(0.222229 0.166626)"/>
</clipPath>
</defs>
</svg>
