<svg width="36" height="36" viewBox="0 0 36 36" fill="none" xmlns="http://www.w3.org/2000/svg">
<path d="M32.6148 25.4963L24.3926 17.2741L26.7185 14.9482L21.163 9.3926L18.8371 11.7185L10.6148 3.49631L3.60742 10.5037L11.8296 18.7259L4.77779 25.7778V31.3333H10.3333L17.3852 24.2815L25.6074 32.5037L32.6148 25.4963ZM13.9333 16.6222L7.80001 10.5037L10.6148 7.6889L12.4963 9.57038L10.7333 11.3333L12.8222 13.4222L14.5852 11.6593L16.7333 13.8074L13.9333 16.6222ZM19.4889 22.1778L22.3037 19.363L24.4519 21.5111L22.6889 23.2741L24.7778 25.363L26.5408 23.6L28.4222 25.4815L25.6074 28.2963L19.4889 22.1778ZM22.7526 7.81186L26.5126 4.05038L32.0652 9.60297L28.3052 13.3645L22.7526 7.81186Z" fill="#F9995D"/>
</svg>
