<svg width="36" height="37" viewBox="0 0 36 37" fill="none" xmlns="http://www.w3.org/2000/svg">
<g clip-path="url(#clip0_128_202)">
<rect x="0.222229" y="15.537" width="20.7407" height="20.7407" fill="#7595FD"/>
<path d="M31.3333 21.4628C31.3333 20.648 30.6667 19.9814 29.8519 19.9814H26.8889V22.9443H29.8519C30.6667 22.9443 31.3333 22.2777 31.3333 21.4628ZM29.8519 25.9073H26.8889V28.8702H29.8519C30.6667 28.8702 31.3333 28.2036 31.3333 27.3888C31.3333 26.574 30.6667 25.9073 29.8519 25.9073ZM18 21.4628H15.037V27.3888H18C18 29.0184 19.3333 30.3517 20.963 30.3517H25.4074V18.4999H20.963C19.3333 18.4999 18 19.8332 18 21.4628Z" fill="white"/>
<path d="M7.62959 19.9814C7.62959 18.3518 8.96292 17.0184 10.5926 17.0184H12.8148C15.674 17.0184 18 14.6925 18 11.8333C18 8.974 15.674 6.64807 12.8148 6.64807H7.62959C6.81477 6.64807 6.14811 7.31474 6.14811 8.12955C6.14811 8.94437 6.81477 9.61103 7.62959 9.61103H12.8148C14.0444 9.61103 15.037 10.6036 15.037 11.8333C15.037 13.0629 14.0444 14.0555 12.8148 14.0555H10.5926C7.31848 14.0555 4.66663 16.7073 4.66663 19.9814C4.66663 23.2555 7.31848 25.9073 10.5926 25.9073H13.5555V22.9444H10.5926C8.96292 22.9444 7.62959 21.611 7.62959 19.9814Z" fill="white"/>
</g>
<defs>
<clipPath id="clip0_128_202">
<rect width="35.5556" height="35.5556" fill="white" transform="translate(0.222229 0.722168)"/>
</clipPath>
</defs>
</svg>
